<svg width="208" height="208" viewBox="0 0 208 208" fill="none" xmlns="http://www.w3.org/2000/svg">
  <rect width="208" height="208" fill="black"/>
  <text x="104" y="176" font-family="Arial, sans-serif" font-size="24" font-weight="bold" fill="white" text-anchor="middle">BUDGIT</text>
  <path d="M79.5 59C79.5 59 79.5 99 79.5 119C79.5 119 99.5 119 109.5 119C119.5 119 139.5 119 139.5 99C139.5 79 119.5 79 109.5 79C109.5 79 99.5 79 99.5 79C99.5 79 119.5 79 129.5 79C139.5 79 149.5 69 149.5 59C149.5 49 139.5 39 129.5 39C119.5 39 79.5 39 79.5 39L79.5 59Z" fill="white" stroke="white" stroke-width="4"/>
  <circle cx="165" cy="81" r="4" fill="#FF0000"/>
</svg>
